<?xml version="1.0" encoding="UTF-8"?>
<svg id="Camada_2" xmlns="http://www.w3.org/2000/svg" viewBox="0 0 121.18 143.42">
  <defs>
    <style>
      .cls-1 {
        fill: #fff;
      }

      .cls-2 {
        fill: gold;
      }
    </style>
  </defs>
  <g id="Camada_1-2" data-name="Camada_1">
    <g>
      <path class="cls-2" d="M100.34,55.29V.02l-5.42,5.85v58.05c2.43-2.25,4.36-5.16,5.42-8.64Z"/>
      <path class="cls-2" d="M100.34,137.38v-67.44c-2.65,2.05-18.51,35.06-34.12-5-6.63-17.01-34.54-8.28-36.93,6.22l.02,7.22c2.3-11.79,25.63-24.85,32.08-8.23,15.55,40.08,32.5,12.87,34.5,10.61l-.97,62.46,20.84.19,5.42-5.85-20.84-.19Z"/>
      <polygon class="cls-2" points="5.42 137.41 5.59 .03 5.57 0 .17 5.87 0 143.27 24.04 143.3 29.47 137.44 5.42 137.41"/>
      <path class="cls-1" d="M100.34.02h0v55.27c-1.06,3.47-2.99,6.39-5.42,8.64-8.35,7.73-22.61,7.47-27.74-5.99-5-13.11-24.46-36.68-37.93-.71.14-19.07-.08-38.14.06-57.21H5.59s-.17,137.4-.17,137.4l24.04.03-.17-59.05-.02-7.22c2.4-14.5,30.3-23.23,36.93-6.22,15.62,40.06,31.48,7.05,34.12,5v67.44l20.84.19V.02h-20.84Z"/>
    </g>
  </g>
</svg>